<svg id="trees" xmlns="http://www.w3.org/2000/svg" viewBox="0 0 1920 1080"><defs><style>.cls-1{fill:#324536;}.cls-2{fill:#416142;}.cls-3{fill:#77543e;}.cls-4{fill:#a77655;}.cls-5{fill:#73ad5e;}.cls-6{fill:#4d8550;}.cls-7{fill:#304534;}.cls-8{fill:#b9936e;}.cls-9{fill:#785541;}.cls-10{fill:#917760;}.cls-11{fill:none;}</style></defs><polygon class="cls-1" points="692.05 816.61 767.33 1040.61 692.05 1040.61 692.05 816.61"/><polygon class="cls-2" points="692.05 1040.61 692.05 816.61 616.77 1040.61 692.05 1040.61"/><rect class="cls-3" x="692.05" y="1040.61" width="11.21" height="39.18"/><rect class="cls-4" x="681.64" y="1040.61" width="11.21" height="39.18"/><rect class="cls-3" x="568.13" y="1024.87" width="18.37" height="54.92"/><rect class="cls-4" x="551.07" y="1024.87" width="18.37" height="54.92"/><polygon class="cls-5" points="569.44 710.87 512.37 863.72 540.9 849.73 569.44 867.87 569.44 710.87"/><polygon class="cls-6" points="569.44 710.87 626.51 863.72 597.97 849.73 569.44 867.87 569.44 710.87"/><polygon class="cls-6" points="569.44 867.87 540.9 849.73 512.37 863.72 482.24 944.59 530.32 915.8 569.44 950.58 569.44 867.87"/><polygon class="cls-2" points="569.44 867.87 597.97 849.73 626.51 863.72 656.64 944.59 608.55 915.8 569.44 950.58 569.44 867.87"/><polygon class="cls-2" points="569.44 950.58 530.32 915.8 482.24 944.59 451.85 1025.97 569.44 1025.97 569.44 950.58"/><polygon class="cls-7" points="569.44 950.58 608.55 915.8 656.64 944.59 687.02 1025.97 569.44 1025.97 569.44 950.58"/><polygon class="cls-8" points="544.02 955.97 732.02 867.96 743.05 983.97 544.02 955.97"/><polygon class="cls-9" points="732.02 867.96 743.12 1079.79 911.54 1080 859.6 918.99 732.02 867.96"/><polygon class="cls-10" points="544.02 955.97 738.06 983.27 743.12 1079.79 743.12 1079.79 482.78 1079.79 482.78 1042.72 544.02 955.97"/><polygon class="cls-10" points="683.01 1079.79 867.7 1022.38 867.7 1079.79 683.01 1079.79"/><polygon class="cls-8" points="698.19 1022.38 795.42 954.62 867.7 1022.38 683.01 1079.79 698.19 1022.38"/><polygon class="cls-9" points="1525.14 1052.08 1511.48 1080 1610.46 1080 1579.68 1057.28 1525.14 1052.08"/><polygon class="cls-10" points="1394.38 1062.45 1525.14 1052.08 1511.79 1080 1511.79 1080 1358.36 1080 1358.36 1074.6 1394.38 1062.45"/><polygon class="cls-8" points="1394.07 1062.45 1525.14 1052.08 1511.79 1080 1394.07 1062.45"/><polygon class="cls-5" points="936.02 833.67 888.07 897.14 936.02 897.14 936.02 833.67"/><polygon class="cls-6" points="983.98 897.14 936.02 833.67 936.02 897.14 983.98 897.14"/><polygon class="cls-6" points="936.02 897.14 915.57 897.14 869.73 956.38 936.02 956.38 936.02 897.14"/><polygon class="cls-2" points="936.02 897.14 956.47 897.14 1002.31 956.38 936.02 956.38 936.02 897.14"/><polygon class="cls-2" points="936.02 956.38 906.4 956.38 844.34 1037.48 936.02 1037.48 936.02 956.38"/><polygon class="cls-7" points="936.02 956.38 965.64 956.38 1027.7 1037.48 936.02 1037.48 936.02 956.38"/><rect class="cls-3" x="935.32" y="1037.48" width="9.87" height="42.52"/><rect class="cls-4" x="926.15" y="1037.48" width="9.87" height="42.52"/><polygon class="cls-1" points="659.15 849.73 724.95 1045.54 659.15 1045.54 659.15 849.73"/><polygon class="cls-2" points="659.15 1045.54 659.15 849.73 593.34 1045.54 659.15 1045.54"/><rect class="cls-3" x="659.15" y="1045.54" width="9.8" height="34.25"/><rect class="cls-4" x="650.05" y="1045.54" width="9.8" height="34.25"/><polygon class="cls-1" points="1173.04 849.73 1238.84 1045.54 1173.04 1045.54 1173.04 849.73"/><polygon class="cls-2" points="1173.04 1045.54 1173.04 849.73 1107.23 1045.54 1173.04 1045.54"/><rect class="cls-3" x="1173.03" y="1045.54" width="9.8" height="34.46"/><rect class="cls-4" x="1163.93" y="1045.54" width="9.8" height="34.46"/><rect class="cls-3" x="477.28" y="1051.36" width="9.51" height="28.43"/><rect class="cls-4" x="468.45" y="1051.36" width="9.51" height="28.43"/><polygon class="cls-5" points="477.96 888.82 448.42 967.95 463.19 960.71 477.96 970.09 477.96 888.82"/><polygon class="cls-6" points="477.96 888.82 507.5 967.95 492.73 960.71 477.96 970.09 477.96 888.82"/><polygon class="cls-6" points="477.96 970.09 463.19 960.71 448.42 967.95 432.82 1009.81 457.72 994.9 477.96 1012.91 477.96 970.09"/><polygon class="cls-2" points="477.96 970.09 492.73 960.71 507.5 967.95 523.1 1009.81 498.21 994.9 477.96 1012.91 477.96 970.09"/><polygon class="cls-2" points="477.96 1012.91 457.72 994.9 432.82 1009.81 417.1 1051.93 477.96 1051.93 477.96 1012.91"/><polygon class="cls-7" points="477.96 1012.91 498.21 994.9 523.1 1009.81 538.83 1051.93 477.96 1051.93 477.96 1012.91"/><polygon class="cls-1" points="1118.79 961.92 1152.51 1062.25 1118.79 1062.25 1118.79 961.92"/><polygon class="cls-2" points="1118.79 1062.25 1118.79 961.92 1085.08 1062.25 1118.79 1062.25"/><rect class="cls-3" x="1118.79" y="1062.35" width="5.02" height="17.65"/><rect class="cls-4" x="1114.13" y="1062.35" width="5.02" height="17.65"/><rect class="cls-3" x="1225.12" y="1061.25" width="6.23" height="18.75"/><rect class="cls-4" x="1219.34" y="1061.25" width="6.23" height="18.75"/><polygon class="cls-5" points="1225.57 954.62 1206.2 1006.48 1215.89 1001.74 1225.57 1007.89 1225.57 954.62"/><polygon class="cls-6" points="1225.57 954.62 1244.93 1006.48 1235.25 1001.74 1225.57 1007.89 1225.57 954.62"/><polygon class="cls-6" points="1225.57 1007.89 1215.89 1001.74 1206.2 1006.48 1195.98 1033.92 1212.3 1024.15 1225.57 1035.95 1225.57 1007.89"/><polygon class="cls-2" points="1225.57 1007.89 1235.25 1001.74 1244.93 1006.48 1255.15 1033.92 1238.84 1024.15 1225.57 1035.95 1225.57 1007.89"/><polygon class="cls-2" points="1225.57 1035.95 1212.3 1024.15 1195.98 1033.92 1185.67 1061.53 1225.57 1061.53 1225.57 1035.95"/><polygon class="cls-7" points="1225.57 1035.95 1238.84 1024.15 1255.15 1033.92 1265.46 1061.53 1225.57 1061.53 1225.57 1035.95"/><rect class="cls-3" x="1447.32" y="1049.84" width="10.02" height="30.16"/><rect class="cls-4" x="1438.02" y="1049.84" width="10.02" height="30.16"/><polygon class="cls-5" points="1448.04 878.57 1416.91 961.94 1432.47 954.31 1448.04 964.21 1448.04 878.57"/><polygon class="cls-6" points="1448.04 878.57 1479.16 961.94 1463.6 954.31 1448.04 964.21 1448.04 878.57"/><polygon class="cls-6" points="1448.04 964.21 1432.47 954.31 1416.91 961.94 1400.48 1006.05 1426.7 990.35 1448.04 1009.32 1448.04 964.21"/><polygon class="cls-2" points="1448.04 964.21 1463.6 954.31 1479.16 961.94 1495.6 1006.05 1469.37 990.35 1448.04 1009.32 1448.04 964.21"/><polygon class="cls-2" points="1448.04 1009.32 1426.7 990.35 1400.48 1006.05 1383.9 1050.44 1448.04 1050.44 1448.04 1009.32"/><polygon class="cls-7" points="1448.04 1009.32 1469.37 990.35 1495.6 1006.05 1512.17 1050.44 1448.04 1050.44 1448.04 1009.32"/><polygon class="cls-5" points="1412.42 943.35 1385.84 978.54 1412.42 978.54 1412.42 943.35"/><polygon class="cls-6" points="1439.01 978.54 1412.42 943.35 1412.42 978.54 1439.01 978.54"/><polygon class="cls-6" points="1412.42 978.54 1401.09 978.54 1375.67 1011.38 1412.42 1011.38 1412.42 978.54"/><polygon class="cls-2" points="1412.42 978.54 1423.76 978.54 1449.17 1011.38 1412.42 1011.38 1412.42 978.54"/><polygon class="cls-2" points="1412.42 1011.38 1396 1011.38 1361.6 1056.34 1412.42 1056.34 1412.42 1011.38"/><polygon class="cls-7" points="1412.42 1011.38 1428.84 1011.38 1463.25 1056.34 1412.42 1056.34 1412.42 1011.38"/><rect class="cls-3" x="1412.03" y="1056.34" width="5.47" height="23.66"/><rect class="cls-4" x="1406.95" y="1056.34" width="5.47" height="23.66"/><polygon class="cls-1" points="1495.6 954.62 1531.4 1061.16 1495.6 1061.16 1495.6 954.62"/><polygon class="cls-2" points="1495.6 1061.16 1495.6 954.62 1459.79 1061.16 1495.6 1061.16"/><rect class="cls-3" x="1495.6" y="1061.16" width="5.33" height="18.84"/><rect class="cls-4" x="1490.65" y="1061.16" width="5.33" height="18.84"/><rect class="cls-11" width="1920" height="1079.79"/></svg>